<svg width="324" height="323" viewBox="0 0 324 323" fill="none" xmlns="http://www.w3.org/2000/svg">
<path d="M85.5265 267.498C91.5466 271.87 98.5359 273.98 105.474 273.98C115.916 273.98 126.221 269.2 132.853 260.217C132.872 260.198 132.89 260.178 132.907 260.157C132.923 260.136 132.939 260.115 132.954 260.094L132.977 260.061C132.993 260.039 133.008 260.017 133.023 259.996L156.491 227.725L179.959 259.996C179.982 260.031 180.006 260.058 180.029 260.088C180.04 260.102 180.05 260.116 180.061 260.132C191.115 275.188 212.355 278.505 227.473 267.515C242.608 256.526 245.992 235.278 235.074 220.104L235.05 220.066C235.03 220.034 235.014 220.01 234.989 219.985L211.572 187.696L249.512 175.346C267.334 169.545 277.129 150.305 271.33 132.476C265.532 114.648 246.315 104.849 228.476 110.633L190.537 122.933L190.52 83.0064C190.502 64.2594 175.248 49 156.508 49C137.768 49 122.514 64.2594 122.497 83.0234L122.463 122.916L84.5233 110.616C84.5083 110.616 84.49 110.613 84.4716 110.608C84.4477 110.601 84.4232 110.592 84.4041 110.582C66.5992 104.866 47.4508 114.665 41.6689 132.46C35.8869 150.254 45.6143 169.426 63.3511 175.278C63.3675 175.283 63.3822 175.289 63.3963 175.295L63.4588 175.319L63.4873 175.329L101.41 187.679L77.9929 219.968C77.9844 219.985 77.9718 220.002 77.9591 220.019C77.9462 220.036 77.9336 220.053 77.9251 220.07C66.9903 235.244 70.3915 256.509 85.5265 267.498Z" fill="#458246"/>
<path d="M38.6733 194.981C40.3624 202.227 44.265 208.397 49.5102 212.939C57.4039 219.774 68.3233 222.906 79.2171 220.457C79.2439 220.455 79.2706 220.451 79.2972 220.447C79.3231 220.441 79.3489 220.436 79.374 220.43L79.413 220.42C79.4395 220.414 79.4652 220.407 79.4903 220.401L118.356 211.367L114.973 251.125C114.967 251.167 114.968 251.203 114.966 251.24C114.965 251.258 114.963 251.275 114.961 251.295C113.462 269.913 127.348 286.324 145.97 287.912C164.606 289.512 181.073 275.664 182.752 257.046L182.759 257.001C182.764 256.964 182.768 256.935 182.765 256.9L186.199 217.162L222.965 232.661C240.235 239.942 260.235 231.808 267.522 214.534C274.809 197.261 266.695 177.274 249.423 169.969L212.691 154.433L238.814 124.238C251.072 110.054 249.529 88.533 235.362 76.2658C221.195 63.9987 199.674 65.5492 187.379 79.7232L161.239 109.859L140.609 75.7254C140.598 75.7155 140.586 75.7011 140.576 75.6851C140.562 75.6646 140.55 75.6413 140.541 75.6216C130.823 59.6455 109.933 54.5185 93.9135 64.1863C77.8945 73.8533 72.6982 94.7144 82.2761 110.749C82.2853 110.763 82.2925 110.778 82.2992 110.791L82.3307 110.85L82.3457 110.877L102.93 145.037L64.091 154.118C64.0735 154.125 64.0528 154.13 64.0321 154.134C64.0112 154.139 63.9906 154.143 63.973 154.151C45.7737 158.464 34.4249 176.766 38.6733 194.981Z" fill="#458246"/>
</svg>
