<svg width="148" height="167" viewBox="0 0 148 167" fill="none" xmlns="http://www.w3.org/2000/svg">
<path fill-rule="evenodd" clip-rule="evenodd" d="M94.4903 47.0366C137.307 -3.55739 179.091 71.2798 115.124 83.4012C179.091 96.0498 136.791 170.36 94.4903 119.765C116.156 183.008 32.0709 182.481 53.7373 119.765C10.9206 170.36 -30.8642 96.0498 33.1027 83.4012C-31.3801 71.2798 10.9206 -3.03038 53.7373 47.0366C31.5551 -15.6789 116.156 -15.6789 94.4903 47.0366ZM73.8555 73.9149C79.0146 73.9149 83.657 78.1311 83.657 83.4012C83.657 88.6713 79.0146 93.4148 73.8555 93.4148C68.6972 93.4148 64.5699 88.6713 64.5699 83.4012C64.5699 78.1311 68.6972 73.9149 73.8555 73.9149Z" fill="#fa2d37"/>
<ellipse cx="74" cy="81.0128" rx="34.9057" ry="35.5319" fill="#fa2d37"/>
</svg>
