<svg width="1398" height="1184" viewBox="0 0 1398 1184" fill="none" xmlns="http://www.w3.org/2000/svg">
<path d="M690.973 1112.71C696.864 1112.71 701.64 1107.94 701.64 1102.05C701.64 1096.16 696.864 1091.38 690.973 1091.38C685.082 1091.38 680.306 1096.16 680.306 1102.05C680.306 1107.94 685.082 1112.71 690.973 1112.71ZM690.973 74.6191C696.864 74.6191 701.64 69.8434 701.64 63.9524C701.64 58.0614 696.864 53.2857 690.973 53.2857C685.082 53.2857 680.306 58.0614 680.306 63.9524C680.306 69.8434 685.082 74.6191 690.973 74.6191ZM690.973 1102.05H692.973V1097.06H690.973H688.973V1102.05H690.973ZM690.973 1087.07H692.973V1077.09H690.973H688.973V1087.07H690.973ZM690.973 1067.11H692.973V1057.13H690.973H688.973V1067.11H690.973ZM690.973 1047.15H692.973V1037.17H690.973H688.973V1047.15H690.973ZM690.973 1027.18H692.973V1017.2H690.973H688.973V1027.18H690.973ZM690.973 1007.22H692.973V997.239H690.973H688.973V1007.22H690.973ZM690.973 987.257H692.973V977.276H690.973H688.973V987.257H690.973ZM690.973 967.294H692.973V957.312H690.973H688.973V967.294H690.973ZM690.973 947.331H692.973V937.349H690.973H688.973V947.331H690.973ZM690.973 927.367H692.973V917.386H690.973H688.973V927.367H690.973ZM690.973 907.404H692.973V897.422H690.973H688.973V907.404H690.973ZM690.973 887.441H692.973V877.459H690.973H688.973V887.441H690.973ZM690.973 867.477H692.973V857.496H690.973H688.973V867.477H690.973ZM690.973 847.514H692.973V837.532H690.973H688.973V847.514H690.973ZM690.973 827.551H692.973V817.569H690.973H688.973V827.551H690.973ZM690.973 807.587H692.973V797.606H690.973H688.973V807.587H690.973ZM690.973 787.624H692.973V777.642H690.973H688.973V787.624H690.973ZM690.973 767.661H692.973V757.679H690.973H688.973V767.661H690.973ZM690.973 747.697H692.973V737.715H690.973H688.973V747.697H690.973ZM690.973 727.734H692.973V717.752H690.973H688.973V727.734H690.973ZM690.973 707.77H692.973V697.789H690.973H688.973V707.77H690.973ZM690.973 687.807H692.973V677.825H690.973H688.973V687.807H690.973ZM690.973 667.844H692.973V657.862H690.973H688.973V667.844H690.973ZM690.973 647.88H692.973V637.899H690.973H688.973V647.88H690.973ZM690.973 627.917H692.973V617.935H690.973H688.973V627.917H690.973ZM690.973 607.954H692.973V597.972H690.973H688.973V607.954H690.973ZM690.973 587.99H692.973V578.008H690.973H688.973V587.99H690.973ZM690.973 568.027H692.973V558.045H690.973H688.973V568.027H690.973ZM690.973 548.063H692.973V538.082H690.973H688.973V548.063H690.973ZM690.973 528.1H692.973V518.118H690.973H688.973V528.1H690.973ZM690.973 508.137H692.973V498.155H690.973H688.973V508.137H690.973ZM690.973 488.173H692.973V478.192H690.973H688.973V488.173H690.973ZM690.973 468.21H692.973V458.228H690.973H688.973V468.21H690.973ZM690.973 448.247H692.973V438.265H690.973H688.973V448.247H690.973ZM690.973 428.283H692.973V418.301H690.973H688.973V428.283H690.973ZM690.973 408.32H692.973V398.338H690.973H688.973V408.32H690.973ZM690.973 388.356H692.973V378.375H690.973H688.973V388.356H690.973ZM690.973 368.393H692.973V358.411H690.973H688.973V368.393H690.973ZM690.973 348.43H692.973V338.448H690.973H688.973V348.43H690.973ZM690.973 328.466H692.973V318.485H690.973H688.973V328.466H690.973ZM690.973 308.503H692.973V298.521H690.973H688.973V308.503H690.973ZM690.973 288.539H692.973V278.558H690.973H688.973V288.539H690.973ZM690.973 268.576H692.973V258.594H690.973H688.973V268.576H690.973ZM690.973 248.613H692.973V238.631H690.973H688.973V248.613H690.973ZM690.973 228.649H692.973V218.668H690.973H688.973V228.649H690.973ZM690.973 208.686H692.973V198.704H690.973H688.973V208.686H690.973ZM690.973 188.723H692.973V178.741H690.973H688.973V188.723H690.973ZM690.973 168.759H692.973V158.778H690.973H688.973V168.759H690.973ZM690.973 148.796H692.973V138.814H690.973H688.973V148.796H690.973ZM690.973 128.832H692.973V118.851H690.973H688.973V128.832H690.973ZM690.973 108.869H692.973V98.8874H690.973H688.973V108.869H690.973ZM690.973 88.9057H692.973V78.924H690.973H688.973V88.9057H690.973ZM690.973 68.9424H692.973V63.9524H690.973H688.973V68.9424H690.973Z" fill="#405C35"/>
<path d="M161.259 583C161.259 588.891 166.035 593.666 171.926 593.666C177.817 593.666 182.592 588.891 182.592 583C182.592 577.109 177.817 572.333 171.926 572.333C166.035 572.333 161.259 577.109 161.259 583ZM1199.35 583C1199.35 588.891 1204.13 593.666 1210.02 593.666C1215.91 593.666 1220.69 588.891 1220.69 583C1220.69 577.109 1215.91 572.333 1210.02 572.333C1204.13 572.333 1199.35 577.109 1199.35 583ZM171.926 583V585H176.917V583V581H171.926V583ZM186.898 583V585H196.88V583V581H186.898V583ZM206.862 583V585H216.843V583V581H206.862V583ZM226.825 583V585H236.807V583V581H226.825V583ZM246.788 583V585H256.77V583V581H246.788V583ZM266.752 583V585H276.733V583V581H266.752V583ZM286.715 583V585H296.697V583V581H286.715V583ZM306.678 583V585H316.66V583V581H306.678V583ZM326.642 583V585H336.623V583V581H326.642V583ZM346.605 583V585H356.587V583V581H346.605V583ZM366.568 583V585H376.55V583V581H366.568V583ZM386.532 583V585H396.513V583V581H386.532V583ZM406.495 583V585H416.477V583V581H406.495V583ZM426.458 583V585H436.44V583V581H426.458V583ZM446.422 583V585H456.404V583V581H446.422V583ZM466.385 583V585H476.367V583V581H466.385V583ZM486.349 583V585H496.33V583V581H486.349V583ZM506.312 583V585H516.294V583V581H506.312V583ZM526.275 583V585H536.257V583V581H526.275V583ZM546.239 583V585H556.22V583V581H546.239V583ZM566.202 583V585H576.184V583V581H566.202V583ZM586.165 583V585H596.147V583V581H586.165V583ZM606.129 583V585H616.111V583V581H606.129V583ZM626.092 583V585H636.074V583V581H626.092V583ZM646.056 583V585H656.037V583V581H646.056V583ZM666.019 583V585H676.001V583V581H666.019V583ZM685.982 583V585H695.964V583V581H685.982V583ZM705.946 583V585H715.927V583V581H705.946V583ZM725.909 583V585H735.891V583V581H725.909V583ZM745.873 583V585H755.854V583V581H745.873V583ZM765.836 583V585H775.818V583V581H765.836V583ZM785.799 583V585H795.781V583V581H785.799V583ZM805.763 583V585H815.744V583V581H805.763V583ZM825.726 583V585H835.708V583V581H825.726V583ZM845.689 583V585H855.671V583V581H845.689V583ZM865.653 583V585H875.634V583V581H865.653V583ZM885.616 583V585H895.598V583V581H885.616V583ZM905.58 583V585H915.561V583V581H905.58V583ZM925.543 583V585H935.525V583V581H925.543V583ZM945.506 583V585H955.488V583V581H945.506V583ZM965.47 583V585H975.451V583V581H965.47V583ZM985.433 583V585H995.415V583V581H985.433V583ZM1005.4 583V585H1015.38V583V581H1005.4V583ZM1025.36 583V585H1035.34V583V581H1025.36V583ZM1045.32 583V585H1055.3V583V581H1045.32V583ZM1065.29 583V585H1075.27V583V581H1065.29V583ZM1085.25 583V585H1095.23V583V581H1085.25V583ZM1105.21 583V585H1115.2V583V581H1105.21V583ZM1125.18 583V585H1135.16V583V581H1125.18V583ZM1145.14 583V585H1155.12V583V581H1145.14V583ZM1165.1 583V585H1175.09V583V581H1165.1V583ZM1185.07 583V585H1195.05V583V581H1185.07V583ZM1205.03 583V585H1210.02V583V581H1205.03V583Z" fill="#405C35"/>
<path d="M633.65 16.075H626.15V21.95H634.475V24H623.825V6.525H634.025V8.575H626.15V14.025H633.65V16.075ZM649.754 10.9L645.354 17.225L649.879 24H647.404L644.179 19.025L640.904 24H638.479L643.104 17.325L638.729 10.9H641.179L644.254 15.6L647.379 10.9H649.754ZM659.733 10.9H664.883V12.6H659.733V19.9C659.733 20.8667 659.983 21.5417 660.483 21.925C660.983 22.2917 661.708 22.475 662.658 22.475C663.092 22.475 663.492 22.4583 663.858 22.425C664.225 22.375 664.567 22.3083 664.883 22.225V24.05C664.467 24.1667 664.058 24.2417 663.658 24.275C663.258 24.325 662.883 24.35 662.533 24.35C660.95 24.35 659.742 24.025 658.908 23.375C658.075 22.725 657.658 21.6917 657.658 20.275V12.6H653.883V10.9H657.658V7.3H659.733V10.9ZM670.462 24V10.9H672.387V13.725C672.821 12.7917 673.446 12.025 674.262 11.425C675.079 10.825 676.021 10.525 677.087 10.525C678.587 10.525 679.729 10.9083 680.512 11.675C681.312 12.4417 681.771 13.475 681.887 14.775H679.812C679.662 13.9917 679.354 13.3917 678.887 12.975C678.437 12.5583 677.771 12.35 676.887 12.35C676.021 12.35 675.262 12.5833 674.612 13.05C673.962 13.5 673.454 14.125 673.087 14.925C672.737 15.7083 672.562 16.6167 672.562 17.65V24H670.462ZM690.541 10.5C691.891 10.5 693 10.8083 693.866 11.425C694.75 12.025 695.4 12.85 695.816 13.9C696.25 14.95 696.466 16.1417 696.466 17.475C696.466 18.7917 696.25 19.9833 695.816 21.05C695.4 22.1 694.75 22.9333 693.866 23.55C693 24.15 691.891 24.45 690.541 24.45C689.208 24.45 688.1 24.15 687.216 23.55C686.333 22.9333 685.675 22.1 685.241 21.05C684.825 19.9833 684.616 18.7917 684.616 17.475C684.616 16.1417 684.825 14.95 685.241 13.9C685.675 12.85 686.333 12.025 687.216 11.425C688.1 10.8083 689.208 10.5 690.541 10.5ZM690.541 12.425C689.658 12.425 688.941 12.6583 688.391 13.125C687.841 13.5917 687.433 14.2083 687.166 14.975C686.916 15.7417 686.791 16.575 686.791 17.475C686.791 18.3583 686.916 19.1917 687.166 19.975C687.433 20.7417 687.841 21.3583 688.391 21.825C688.941 22.2917 689.658 22.525 690.541 22.525C691.425 22.525 692.141 22.2917 692.691 21.825C693.241 21.3583 693.641 20.7417 693.891 19.975C694.158 19.1917 694.291 18.3583 694.291 17.475C694.291 16.575 694.158 15.7417 693.891 14.975C693.641 14.2083 693.241 13.5917 692.691 13.125C692.141 12.6583 691.425 12.425 690.541 12.425ZM711.946 10.9L707.146 24H704.846L700.046 10.9H702.271L706.046 21.5L709.796 10.9H711.946ZM727.15 19.95C726.933 21.3167 726.325 22.4083 725.325 23.225C724.341 24.0417 723.083 24.45 721.55 24.45C720.233 24.45 719.133 24.1583 718.25 23.575C717.366 22.975 716.7 22.1583 716.25 21.125C715.816 20.0917 715.6 18.9083 715.6 17.575C715.6 16.1083 715.85 14.85 716.35 13.8C716.85 12.75 717.55 11.9417 718.45 11.375C719.35 10.7917 720.4 10.5 721.6 10.5C722.95 10.5 724.05 10.8167 724.9 11.45C725.766 12.0833 726.4 12.9667 726.8 14.1C727.216 15.2333 727.425 16.5583 727.425 18.075H717.775C717.808 19.3583 718.141 20.425 718.775 21.275C719.408 22.1083 720.358 22.525 721.625 22.525C723.341 22.525 724.483 21.6667 725.05 19.95H727.15ZM721.575 12.425C720.408 12.425 719.516 12.8083 718.9 13.575C718.283 14.3417 717.925 15.275 717.825 16.375H725.175C725.175 15.6417 725.025 14.9833 724.725 14.4C724.441 13.8 724.033 13.325 723.5 12.975C722.966 12.6083 722.325 12.425 721.575 12.425ZM732.279 24V10.9H734.204V13.725C734.637 12.7917 735.262 12.025 736.079 11.425C736.895 10.825 737.837 10.525 738.904 10.525C740.404 10.525 741.545 10.9083 742.329 11.675C743.129 12.4417 743.587 13.475 743.704 14.775H741.629C741.479 13.9917 741.17 13.3917 740.704 12.975C740.254 12.5583 739.587 12.35 738.704 12.35C737.837 12.35 737.079 12.5833 736.429 13.05C735.779 13.5 735.27 14.125 734.904 14.925C734.554 15.7083 734.379 16.6167 734.379 17.65V24H732.279ZM752.458 10.9H757.608V12.6H752.458V19.9C752.458 20.8667 752.708 21.5417 753.208 21.925C753.708 22.2917 754.433 22.475 755.383 22.475C755.816 22.475 756.216 22.4583 756.583 22.425C756.949 22.375 757.291 22.3083 757.608 22.225V24.05C757.191 24.1667 756.783 24.2417 756.383 24.275C755.983 24.325 755.608 24.35 755.258 24.35C753.674 24.35 752.466 24.025 751.633 23.375C750.799 22.725 750.383 21.6917 750.383 20.275V12.6H746.608V10.9H750.383V7.3H752.458V10.9Z" fill="#405C35"/>
<path d="M623.85 1178V1176.05H627.55V1162.47H623.85V1160.52H633.625V1162.47H629.9V1176.05H633.625V1178H623.85ZM638.979 1178V1164.9H640.904V1167.07C641.421 1166.27 642.012 1165.65 642.679 1165.2C643.362 1164.75 644.221 1164.52 645.254 1164.52C646.021 1164.52 646.712 1164.66 647.329 1164.92C647.962 1165.17 648.462 1165.57 648.829 1166.1C649.212 1166.62 649.404 1167.28 649.404 1168.1V1178H647.329V1168.92C647.329 1168.04 647.062 1167.39 646.529 1166.97C645.996 1166.56 645.362 1166.35 644.629 1166.35C643.846 1166.35 643.187 1166.55 642.654 1166.95C642.121 1167.35 641.721 1167.87 641.454 1168.52C641.187 1169.17 641.054 1169.87 641.054 1170.62V1178H638.979ZM659.733 1164.9H664.883V1166.6H659.733V1173.9C659.733 1174.87 659.983 1175.54 660.483 1175.92C660.983 1176.29 661.708 1176.47 662.658 1176.47C663.092 1176.47 663.492 1176.46 663.858 1176.42C664.225 1176.37 664.567 1176.31 664.883 1176.22V1178.05C664.467 1178.17 664.058 1178.24 663.658 1178.28C663.258 1178.33 662.883 1178.35 662.533 1178.35C660.95 1178.35 659.742 1178.03 658.908 1177.37C658.075 1176.72 657.658 1175.69 657.658 1174.27V1166.6H653.883V1164.9H657.658V1161.3H659.733V1164.9ZM670.462 1178V1164.9H672.387V1167.72C672.821 1166.79 673.446 1166.02 674.262 1165.42C675.079 1164.82 676.021 1164.52 677.087 1164.52C678.587 1164.52 679.729 1164.91 680.512 1165.67C681.312 1166.44 681.771 1167.47 681.887 1168.77H679.812C679.662 1167.99 679.354 1167.39 678.887 1166.97C678.437 1166.56 677.771 1166.35 676.887 1166.35C676.021 1166.35 675.262 1166.58 674.612 1167.05C673.962 1167.5 673.454 1168.12 673.087 1168.92C672.737 1169.71 672.562 1170.62 672.562 1171.65V1178H670.462ZM690.541 1164.5C691.891 1164.5 693 1164.81 693.866 1165.42C694.75 1166.02 695.4 1166.85 695.816 1167.9C696.25 1168.95 696.466 1170.14 696.466 1171.47C696.466 1172.79 696.25 1173.98 695.816 1175.05C695.4 1176.1 694.75 1176.93 693.866 1177.55C693 1178.15 691.891 1178.45 690.541 1178.45C689.208 1178.45 688.1 1178.15 687.216 1177.55C686.333 1176.93 685.675 1176.1 685.241 1175.05C684.825 1173.98 684.616 1172.79 684.616 1171.47C684.616 1170.14 684.825 1168.95 685.241 1167.9C685.675 1166.85 686.333 1166.02 687.216 1165.42C688.1 1164.81 689.208 1164.5 690.541 1164.5ZM690.541 1166.42C689.658 1166.42 688.941 1166.66 688.391 1167.12C687.841 1167.59 687.433 1168.21 687.166 1168.97C686.916 1169.74 686.791 1170.57 686.791 1171.47C686.791 1172.36 686.916 1173.19 687.166 1173.97C687.433 1174.74 687.841 1175.36 688.391 1175.82C688.941 1176.29 689.658 1176.52 690.541 1176.52C691.425 1176.52 692.141 1176.29 692.691 1175.82C693.241 1175.36 693.641 1174.74 693.891 1173.97C694.158 1173.19 694.291 1172.36 694.291 1171.47C694.291 1170.57 694.158 1169.74 693.891 1168.97C693.641 1168.21 693.241 1167.59 692.691 1167.12C692.141 1166.66 691.425 1166.42 690.541 1166.42ZM711.946 1164.9L707.146 1178H704.846L700.046 1164.9H702.271L706.046 1175.5L709.796 1164.9H711.946ZM727.15 1173.95C726.933 1175.32 726.325 1176.41 725.325 1177.22C724.341 1178.04 723.083 1178.45 721.55 1178.45C720.233 1178.45 719.133 1178.16 718.25 1177.57C717.366 1176.97 716.7 1176.16 716.25 1175.12C715.816 1174.09 715.6 1172.91 715.6 1171.58C715.6 1170.11 715.85 1168.85 716.35 1167.8C716.85 1166.75 717.55 1165.94 718.45 1165.38C719.35 1164.79 720.4 1164.5 721.6 1164.5C722.95 1164.5 724.05 1164.82 724.9 1165.45C725.766 1166.08 726.4 1166.97 726.8 1168.1C727.216 1169.23 727.425 1170.56 727.425 1172.07H717.775C717.808 1173.36 718.141 1174.42 718.775 1175.27C719.408 1176.11 720.358 1176.52 721.625 1176.52C723.341 1176.52 724.483 1175.67 725.05 1173.95H727.15ZM721.575 1166.42C720.408 1166.42 719.516 1166.81 718.9 1167.57C718.283 1168.34 717.925 1169.27 717.825 1170.37H725.175C725.175 1169.64 725.025 1168.98 724.725 1168.4C724.441 1167.8 724.033 1167.32 723.5 1166.97C722.966 1166.61 722.325 1166.42 721.575 1166.42ZM732.279 1178V1164.9H734.204V1167.72C734.637 1166.79 735.262 1166.02 736.079 1165.42C736.895 1164.82 737.837 1164.52 738.904 1164.52C740.404 1164.52 741.545 1164.91 742.329 1165.67C743.129 1166.44 743.587 1167.47 743.704 1168.77H741.629C741.479 1167.99 741.17 1167.39 740.704 1166.97C740.254 1166.56 739.587 1166.35 738.704 1166.35C737.837 1166.35 737.079 1166.58 736.429 1167.05C735.779 1167.5 735.27 1168.12 734.904 1168.92C734.554 1169.71 734.379 1170.62 734.379 1171.65V1178H732.279ZM752.458 1164.9H757.608V1166.6H752.458V1173.9C752.458 1174.87 752.708 1175.54 753.208 1175.92C753.708 1176.29 754.433 1176.47 755.383 1176.47C755.816 1176.47 756.216 1176.46 756.583 1176.42C756.949 1176.37 757.291 1176.31 757.608 1176.22V1178.05C757.191 1178.17 756.783 1178.24 756.383 1178.28C755.983 1178.33 755.608 1178.35 755.258 1178.35C753.674 1178.35 752.466 1178.03 751.633 1177.37C750.799 1176.72 750.383 1175.69 750.383 1174.27V1166.6H746.608V1164.9H750.383V1161.3H752.458V1164.9Z" fill="#405C35"/>
<path d="M1265.55 592H1259.9V574.525H1265.55C1267.03 574.525 1268.27 574.9 1269.25 575.65C1270.23 576.4 1270.97 577.433 1271.45 578.75C1271.95 580.05 1272.2 581.55 1272.2 583.25C1272.2 584.95 1271.95 586.458 1271.45 587.775C1270.97 589.092 1270.23 590.125 1269.25 590.875C1268.27 591.625 1267.03 592 1265.55 592ZM1262.23 576.575V589.95H1265.15C1266.78 589.95 1267.96 589.358 1268.68 588.175C1269.41 586.975 1269.78 585.342 1269.78 583.275C1269.78 581.192 1269.41 579.558 1268.68 578.375C1267.96 577.175 1266.78 576.575 1265.15 576.575H1262.23ZM1286.88 587.95C1286.66 589.317 1286.05 590.408 1285.05 591.225C1284.07 592.042 1282.81 592.45 1281.28 592.45C1279.96 592.45 1278.86 592.158 1277.98 591.575C1277.1 590.975 1276.43 590.158 1275.98 589.125C1275.55 588.092 1275.33 586.908 1275.33 585.575C1275.33 584.108 1275.58 582.85 1276.08 581.8C1276.58 580.75 1277.28 579.942 1278.18 579.375C1279.08 578.792 1280.13 578.5 1281.33 578.5C1282.68 578.5 1283.78 578.817 1284.63 579.45C1285.5 580.083 1286.13 580.967 1286.53 582.1C1286.95 583.233 1287.15 584.558 1287.15 586.075H1277.5C1277.54 587.358 1277.87 588.425 1278.5 589.275C1279.14 590.108 1280.09 590.525 1281.35 590.525C1283.07 590.525 1284.21 589.667 1284.78 587.95H1286.88ZM1281.3 580.425C1280.14 580.425 1279.25 580.808 1278.63 581.575C1278.01 582.342 1277.65 583.275 1277.55 584.375H1284.9C1284.9 583.642 1284.75 582.983 1284.45 582.4C1284.17 581.8 1283.76 581.325 1283.23 580.975C1282.7 580.608 1282.05 580.425 1281.3 580.425ZM1302.58 578.9L1297.78 592H1295.48L1290.68 578.9H1292.91L1296.68 589.5L1300.43 578.9H1302.58ZM1317.79 587.95C1317.57 589.317 1316.96 590.408 1315.96 591.225C1314.98 592.042 1313.72 592.45 1312.19 592.45C1310.87 592.45 1309.77 592.158 1308.89 591.575C1308 590.975 1307.34 590.158 1306.89 589.125C1306.45 588.092 1306.24 586.908 1306.24 585.575C1306.24 584.108 1306.49 582.85 1306.99 581.8C1307.49 580.75 1308.19 579.942 1309.09 579.375C1309.99 578.792 1311.04 578.5 1312.24 578.5C1313.59 578.5 1314.69 578.817 1315.54 579.45C1316.4 580.083 1317.04 580.967 1317.44 582.1C1317.85 583.233 1318.06 584.558 1318.06 586.075H1308.41C1308.45 587.358 1308.78 588.425 1309.41 589.275C1310.05 590.108 1311 590.525 1312.26 590.525C1313.98 590.525 1315.12 589.667 1315.69 587.95H1317.79ZM1312.21 580.425C1311.05 580.425 1310.15 580.808 1309.54 581.575C1308.92 582.342 1308.56 583.275 1308.46 584.375H1315.81C1315.81 583.642 1315.66 582.983 1315.36 582.4C1315.08 581.8 1314.67 581.325 1314.14 580.975C1313.6 580.608 1312.96 580.425 1312.21 580.425ZM1329.29 573.775V590.3H1333.32V592H1322.74V590.3H1327.27V575.475H1322.74V573.775H1329.29ZM1343 578.5C1344.35 578.5 1345.45 578.808 1346.32 579.425C1347.2 580.025 1347.85 580.85 1348.27 581.9C1348.7 582.95 1348.92 584.142 1348.92 585.475C1348.92 586.792 1348.7 587.983 1348.27 589.05C1347.85 590.1 1347.2 590.933 1346.32 591.55C1345.45 592.15 1344.35 592.45 1343 592.45C1341.66 592.45 1340.55 592.15 1339.67 591.55C1338.79 590.933 1338.13 590.1 1337.7 589.05C1337.28 587.983 1337.07 586.792 1337.07 585.475C1337.07 584.142 1337.28 582.95 1337.7 581.9C1338.13 580.85 1338.79 580.025 1339.67 579.425C1340.55 578.808 1341.66 578.5 1343 578.5ZM1343 580.425C1342.11 580.425 1341.4 580.658 1340.85 581.125C1340.3 581.592 1339.89 582.208 1339.62 582.975C1339.37 583.742 1339.25 584.575 1339.25 585.475C1339.25 586.358 1339.37 587.192 1339.62 587.975C1339.89 588.742 1340.3 589.358 1340.85 589.825C1341.4 590.292 1342.11 590.525 1343 590.525C1343.88 590.525 1344.6 590.292 1345.15 589.825C1345.7 589.358 1346.1 588.742 1346.35 587.975C1346.61 587.192 1346.75 586.358 1346.75 585.475C1346.75 584.575 1346.61 583.742 1346.35 582.975C1346.1 582.208 1345.7 581.592 1345.15 581.125C1344.6 580.658 1343.88 580.425 1343 580.425ZM1355 597.45H1352.9V578.9H1354.82V580.85C1355.79 579.283 1357.18 578.5 1359 578.5C1360.3 578.5 1361.36 578.833 1362.17 579.5C1363.01 580.15 1363.62 581.017 1364.02 582.1C1364.42 583.167 1364.62 584.333 1364.62 585.6C1364.62 586.85 1364.42 588 1364 589.05C1363.6 590.083 1362.98 590.908 1362.15 591.525C1361.32 592.142 1360.27 592.45 1359.02 592.45C1358.17 592.45 1357.42 592.3 1356.77 592C1356.14 591.683 1355.55 591.183 1355 590.5V597.45ZM1358.65 580.45C1357.78 580.45 1357.08 580.692 1356.55 581.175C1356.02 581.658 1355.62 582.283 1355.37 583.05C1355.12 583.817 1355 584.625 1355 585.475C1355 586.325 1355.12 587.133 1355.37 587.9C1355.62 588.667 1356.02 589.292 1356.55 589.775C1357.08 590.258 1357.78 590.5 1358.65 590.5C1359.53 590.5 1360.25 590.267 1360.8 589.8C1361.37 589.317 1361.78 588.7 1362.05 587.95C1362.32 587.183 1362.45 586.383 1362.45 585.55C1362.45 584.667 1362.32 583.842 1362.05 583.075C1361.78 582.292 1361.37 581.658 1360.8 581.175C1360.25 580.692 1359.53 580.45 1358.65 580.45ZM1379.6 587.95C1379.39 589.317 1378.78 590.408 1377.78 591.225C1376.8 592.042 1375.54 592.45 1374 592.45C1372.69 592.45 1371.59 592.158 1370.7 591.575C1369.82 590.975 1369.15 590.158 1368.7 589.125C1368.27 588.092 1368.05 586.908 1368.05 585.575C1368.05 584.108 1368.3 582.85 1368.8 581.8C1369.3 580.75 1370 579.942 1370.9 579.375C1371.8 578.792 1372.85 578.5 1374.05 578.5C1375.4 578.5 1376.5 578.817 1377.35 579.45C1378.22 580.083 1378.85 580.967 1379.25 582.1C1379.67 583.233 1379.88 584.558 1379.88 586.075H1370.23C1370.26 587.358 1370.6 588.425 1371.23 589.275C1371.86 590.108 1372.81 590.525 1374.08 590.525C1375.8 590.525 1376.94 589.667 1377.5 587.95H1379.6ZM1374.03 580.425C1372.86 580.425 1371.97 580.808 1371.35 581.575C1370.74 582.342 1370.38 583.275 1370.28 584.375H1377.63C1377.63 583.642 1377.48 582.983 1377.18 582.4C1376.9 581.8 1376.49 581.325 1375.95 580.975C1375.42 580.608 1374.78 580.425 1374.03 580.425ZM1384.73 592V578.9H1386.66V581.725C1387.09 580.792 1387.72 580.025 1388.53 579.425C1389.35 578.825 1390.29 578.525 1391.36 578.525C1392.86 578.525 1394 578.908 1394.78 579.675C1395.58 580.442 1396.04 581.475 1396.16 582.775H1394.08C1393.93 581.992 1393.62 581.392 1393.16 580.975C1392.71 580.558 1392.04 580.35 1391.16 580.35C1390.29 580.35 1389.53 580.583 1388.88 581.05C1388.23 581.5 1387.72 582.125 1387.36 582.925C1387.01 583.708 1386.83 584.617 1386.83 585.65V592H1384.73Z" fill="#405C35"/>
<path d="M9.1 586H2.3V568.525H8.525C10.0917 568.525 11.3583 568.925 12.325 569.725C13.3083 570.508 13.8 571.592 13.8 572.975C13.8 573.808 13.6 574.6 13.2 575.35C12.8167 576.1 12.2417 576.608 11.475 576.875C12.375 577.175 13.0833 577.683 13.6 578.4C14.1167 579.1 14.375 579.975 14.375 581.025C14.375 581.892 14.175 582.708 13.775 583.475C13.375 584.225 12.7833 584.833 12 585.3C11.2167 585.767 10.25 586 9.1 586ZM4.575 570.5V576.025H8.175C9.10833 576.025 9.88333 575.842 10.5 575.475C11.1167 575.092 11.425 574.367 11.425 573.3C11.425 572.217 11.1167 571.483 10.5 571.1C9.88333 570.7 9.10833 570.5 8.175 570.5H4.575ZM4.575 578V584.025H8.825C9.925 584.025 10.725 583.742 11.225 583.175C11.7417 582.608 12 581.883 12 581C12 580.117 11.7417 579.4 11.225 578.85C10.725 578.283 9.925 578 8.825 578H4.575ZM28.4041 572.9V586H26.5291V584.05C25.9291 584.917 25.2874 585.533 24.6041 585.9C23.9374 586.267 23.1208 586.45 22.1541 586.45C21.0041 586.45 20.0624 586.192 19.3291 585.675C18.4291 585.025 17.9791 584.092 17.9791 582.875V572.9H20.0541V582.05C20.0541 582.933 20.3458 583.6 20.9291 584.05C21.4124 584.433 22.0208 584.625 22.7541 584.625C23.7374 584.625 24.5624 584.267 25.2291 583.55C25.9624 582.767 26.3291 581.642 26.3291 580.175V572.9H28.4041ZM43.4332 576.475H41.2582C41.2415 575.825 40.9915 575.308 40.5082 574.925C40.0415 574.542 39.4165 574.35 38.6332 574.35C37.7832 574.35 37.0915 574.525 36.5582 574.875C36.0415 575.225 35.7832 575.692 35.7832 576.275C35.7832 576.742 35.9415 577.117 36.2582 577.4C36.5749 577.683 37.0415 577.908 37.6582 578.075L40.6332 578.85C41.7332 579.133 42.5582 579.558 43.1082 580.125C43.6749 580.675 43.9582 581.417 43.9582 582.35C43.9582 583.617 43.4915 584.617 42.5582 585.35C41.6249 586.083 40.3415 586.45 38.7082 586.45C35.2749 586.45 33.4832 584.975 33.3332 582.025H35.5332C35.6332 582.908 35.9499 583.558 36.4832 583.975C37.0332 584.392 37.7915 584.6 38.7582 584.6C39.6915 584.6 40.4332 584.433 40.9832 584.1C41.5499 583.767 41.8332 583.292 41.8332 582.675C41.8332 582.108 41.6832 581.683 41.3832 581.4C41.0832 581.117 40.5749 580.883 39.8582 580.7L37.1082 579.975C35.9249 579.658 35.0499 579.233 34.4832 578.7C33.9332 578.15 33.6582 577.375 33.6582 576.375C33.6582 575.192 34.1082 574.25 35.0082 573.55C35.9249 572.85 37.1499 572.5 38.6832 572.5C40.2165 572.5 41.3832 572.858 42.1832 573.575C42.9999 574.275 43.4165 575.242 43.4332 576.475ZM53.0623 571.025V568.525H55.5623V571.025H53.0623ZM55.3373 572.9V584.3H59.3623V586H48.7873V584.3H53.2873V574.6H48.7873V572.9H55.3373ZM64.3414 586V572.9H66.2664V575.075C66.7831 574.275 67.3747 573.65 68.0414 573.2C68.7247 572.75 69.5831 572.525 70.6164 572.525C71.3831 572.525 72.0747 572.658 72.6914 572.925C73.3247 573.175 73.8247 573.567 74.1914 574.1C74.5747 574.617 74.7664 575.283 74.7664 576.1V586H72.6914V576.925C72.6914 576.042 72.4247 575.392 71.8914 574.975C71.3581 574.558 70.7247 574.35 69.9914 574.35C69.2081 574.35 68.5497 574.55 68.0164 574.95C67.4831 575.35 67.0831 575.875 66.8164 576.525C66.5497 577.175 66.4164 577.875 66.4164 578.625V586H64.3414ZM90.6955 581.95C90.4788 583.317 89.8705 584.408 88.8705 585.225C87.8872 586.042 86.6288 586.45 85.0955 586.45C83.7788 586.45 82.6788 586.158 81.7955 585.575C80.9122 584.975 80.2455 584.158 79.7955 583.125C79.3622 582.092 79.1455 580.908 79.1455 579.575C79.1455 578.108 79.3955 576.85 79.8955 575.8C80.3955 574.75 81.0955 573.942 81.9955 573.375C82.8955 572.792 83.9455 572.5 85.1455 572.5C86.4955 572.5 87.5955 572.817 88.4455 573.45C89.3122 574.083 89.9455 574.967 90.3455 576.1C90.7622 577.233 90.9705 578.558 90.9705 580.075H81.3205C81.3538 581.358 81.6872 582.425 82.3205 583.275C82.9538 584.108 83.9038 584.525 85.1705 584.525C86.8872 584.525 88.0288 583.667 88.5955 581.95H90.6955ZM85.1205 574.425C83.9538 574.425 83.0622 574.808 82.4455 575.575C81.8288 576.342 81.4705 577.275 81.3705 578.375H88.7205C88.7205 577.642 88.5705 576.983 88.2705 576.4C87.9872 575.8 87.5788 575.325 87.0455 574.975C86.5122 574.608 85.8705 574.425 85.1205 574.425ZM105.25 576.475H103.075C103.058 575.825 102.808 575.308 102.325 574.925C101.858 574.542 101.233 574.35 100.45 574.35C99.5996 574.35 98.9079 574.525 98.3746 574.875C97.8579 575.225 97.5996 575.692 97.5996 576.275C97.5996 576.742 97.7579 577.117 98.0746 577.4C98.3913 577.683 98.8579 577.908 99.4746 578.075L102.45 578.85C103.55 579.133 104.375 579.558 104.925 580.125C105.491 580.675 105.775 581.417 105.775 582.35C105.775 583.617 105.308 584.617 104.375 585.35C103.441 586.083 102.158 586.45 100.525 586.45C97.0913 586.45 95.2996 584.975 95.1496 582.025H97.3496C97.4496 582.908 97.7663 583.558 98.2996 583.975C98.8496 584.392 99.6079 584.6 100.575 584.6C101.508 584.6 102.25 584.433 102.8 584.1C103.366 583.767 103.65 583.292 103.65 582.675C103.65 582.108 103.5 581.683 103.2 581.4C102.9 581.117 102.391 580.883 101.675 580.7L98.9246 579.975C97.7413 579.658 96.8663 579.233 96.2996 578.7C95.7496 578.15 95.4746 577.375 95.4746 576.375C95.4746 575.192 95.9246 574.25 96.8246 573.55C97.7413 572.85 98.9663 572.5 100.5 572.5C102.033 572.5 103.2 572.858 104 573.575C104.816 574.275 105.233 575.242 105.25 576.475ZM120.704 576.475H118.529C118.512 575.825 118.262 575.308 117.779 574.925C117.312 574.542 116.687 574.35 115.904 574.35C115.054 574.35 114.362 574.525 113.829 574.875C113.312 575.225 113.054 575.692 113.054 576.275C113.054 576.742 113.212 577.117 113.529 577.4C113.845 577.683 114.312 577.908 114.929 578.075L117.904 578.85C119.004 579.133 119.829 579.558 120.379 580.125C120.945 580.675 121.229 581.417 121.229 582.35C121.229 583.617 120.762 584.617 119.829 585.35C118.895 586.083 117.612 586.45 115.979 586.45C112.545 586.45 110.754 584.975 110.604 582.025H112.804C112.904 582.908 113.22 583.558 113.754 583.975C114.304 584.392 115.062 584.6 116.029 584.6C116.962 584.6 117.704 584.433 118.254 584.1C118.82 583.767 119.104 583.292 119.104 582.675C119.104 582.108 118.954 581.683 118.654 581.4C118.354 581.117 117.845 580.883 117.129 580.7L114.379 579.975C113.195 579.658 112.32 579.233 111.754 578.7C111.204 578.15 110.929 577.375 110.929 576.375C110.929 575.192 111.379 574.25 112.279 573.55C113.195 572.85 114.42 572.5 115.954 572.5C117.487 572.5 118.654 572.858 119.454 573.575C120.27 574.275 120.687 575.242 120.704 576.475Z" fill="#405C35"/>
</svg>
